<?xml version="1.0" encoding="utf-8"?><!DOCTYPE svg PUBLIC "-//W3C//DTD SVG 1.1//EN" "http://www.w3.org/Graphics/SVG/1.1/DTD/svg11.dtd"><svg version="1.1" xmlns="http://www.w3.org/2000/svg" xmlns:xlink="http://www.w3.org/1999/xlink" x="0px" y="0px" viewBox="0 0 100 87.795" enable-background="new 0 0 100 87.795" xml:space="preserve"><path d="M60.369,31.692c-1.642,1.641-3.855,2.585-6.082,2.585c-1.959,0-3.774-0.729-5.108-2.051L29.016,12.051l-1.826,1.825
	l6.965,6.964L11.58,43.415c-0.666,0.667-1.2,1.437-1.6,2.287c-0.625,1.323-0.882,2.78-0.759,4.227C3.261,43.908-0.01,36.266,0,28.4
	c0.01-7.518,3.005-14.636,8.432-20.031C13.856,2.975,21.056,0,28.708,0c4.523,0,8.831,1.016,12.811,3.005
	c1.62,0.8,3.199,1.785,4.687,2.943l0.708,0.554l13.999,13.99C63.836,23.436,63.6,28.46,60.369,31.692z"></path><path d="M44.461,31.148L21.888,53.723c-1.056,1.046-2.483,1.631-3.989,1.631c-1.611,0-3.149-0.646-4.318-1.815
	c-1.169-1.168-1.814-2.696-1.814-4.318c0-1.517,0.572-2.933,1.63-3.989L35.97,22.657L44.461,31.148z"></path><path d="M100,28.4c0.009,7.918-3.303,15.6-9.334,21.641c-3.589,3.579-7.723,7.713-11.949,11.939L54.328,86.164
	c-1.056,1.056-2.472,1.631-3.99,1.631c-1.621,0-3.159-0.646-4.318-1.816c-1.138-1.139-1.774-2.635-1.805-4.215
	c-0.031-1.548,0.543-3.005,1.621-4.093l23.711-23.722l-2.213-2.216L43.621,75.458c-1.057,1.046-2.482,1.629-3.99,1.629
	c-1.61,0-3.148-0.646-4.319-1.813c-1.168-1.17-1.814-2.698-1.814-4.318c0-1.519,0.574-2.935,1.63-3.991L58.84,43.241l-2.521-2.522
	L32.594,64.431c-1.056,1.057-2.472,1.631-3.989,1.631c-1.62,0-3.16-0.646-4.319-1.813c-1.138-1.14-1.774-2.637-1.805-4.216
	c-0.042-1.548,0.543-3.006,1.62-4.094l22.574-22.573l0.687,0.687c1.826,1.816,4.287,2.811,6.923,2.811
	c2.883,0,5.766-1.221,7.909-3.343c4.226-4.247,4.471-10.903,0.533-14.841L51.733,7.683c5.332-4.963,12.244-7.682,19.559-7.682
	c7.64,0,14.841,2.975,20.276,8.37C96.995,13.764,99.991,20.882,100,28.4z"></path></svg>