<svg xmlns="http://www.w3.org/2000/svg" xmlns:xlink="http://www.w3.org/1999/xlink" version="1.1" x="0px" y="0px" viewBox="0 0 100 125" enable-background="new 0 0 100 100" xml:space="preserve"><path d="M16.61,89.438c-7.225-9.148-9.052-21.447-4.8-32.305c-3.37,2-6.295,4.664-8.589,7.844  c-3.452-13.414,1.894-27.553,13.358-35.332c-3.433,0.742-6.698,2.111-9.629,4.041c0.294-1.288,0.669-2.557,1.116-3.801  C14.23,12.841,33.046,4.02,50.093,10.18c1.241-0.443,2.51-0.816,3.795-1.115C71.555,4.997,89.17,16.02,93.236,33.686  c-2.934-1.93-6.199-3.299-9.631-4.041c11.463,7.778,16.809,21.917,13.357,35.332c-2.295-3.18-5.217-5.844-8.588-7.844  c4.25,10.857,2.422,23.156-4.801,32.305c-2.094-3.443-4.896-6.408-8.221-8.691c-9.828,2.494-18.648,7.949-25.26,15.635  c-6.616-7.686-15.436-13.141-25.262-15.635C21.506,83.029,18.704,85.994,16.61,89.438z M65.25,30.78  c-9.074-6.453-21.242-6.453-30.317,0c-2.592-3.18-7.272-3.655-10.448-1.06c-3.179,2.589-3.652,7.267-1.06,10.444  c0.673,0.825,1.517,1.498,2.475,1.967c-5.505,13.365,0.863,28.658,14.224,34.167c13.358,5.5,28.653-0.865,34.159-14.229  c2.631-6.385,2.631-13.546,0-19.939c3.68-1.809,5.197-6.256,3.385-9.936c-1.811-3.682-6.26-5.199-9.941-3.391  C66.77,29.282,65.926,29.948,65.25,30.78z"/><g><path d="M28.958,40.731c-2.285-0.096-4.245-1.657-4.851-3.859c-0.774-2.804,0.873-5.698,3.674-6.473   c2.798-0.773,5.698,0.877,6.47,3.674C32.103,35.958,30.314,38.211,28.958,40.731z"/></g><g><path d="M65.934,34.073c0.607-2.201,2.568-3.762,4.852-3.857c2.902-0.121,5.354,2.131,5.477,5.038   c0.123,2.899-2.133,5.354-5.037,5.478C69.873,38.211,68.08,35.958,65.934,34.073"/></g><g><path d="M61.299,47.913c0-1.217-0.988-2.207-2.211-2.207c-1.221,0-2.211,0.99-2.211,2.207c0,1.219,0.99,2.209,2.211,2.209   C60.311,50.122,61.299,49.131,61.299,47.913L61.299,47.913z"/></g><g><path d="M43.307,47.913c0-1.217-0.99-2.207-2.212-2.207c-1.221,0-2.211,0.99-2.211,2.207c0,1.219,0.99,2.209,2.211,2.209   C42.316,50.122,43.307,49.131,43.307,47.913L43.307,47.913z"/></g><g><path d="M46.908,67.09c1.25-0.609,2.222-1.67,2.717-2.963c0.177-0.469,0.333-0.945,0.469-1.428   c0.134,0.482,0.289,0.959,0.467,1.428c0.494,1.293,1.465,2.354,2.715,2.963s2.686,0.711,4.012,0.293   c1.387-0.434,2.709-1.055,3.934-1.842c0.23-0.139,0.301-0.443,0.16-0.672c-0.141-0.234-0.445-0.305-0.674-0.164   c-1.156,0.742-2.404,1.332-3.717,1.744c-1.084,0.342-2.262,0.254-3.285-0.242c-1.025-0.502-1.822-1.371-2.229-2.43   c-0.225-0.596-0.412-1.199-0.562-1.816c0.248-0.049,0.496-0.111,0.734-0.203c0.469-0.17,0.9-0.432,1.279-0.76   c0.367-0.322,0.666-0.719,0.875-1.168C54,59.418,54.1,58.961,54.1,58.504s-0.1-0.914-0.297-1.326   c-0.209-0.443-0.508-0.844-0.875-1.168c-0.379-0.33-0.811-0.59-1.279-0.76c-0.498-0.186-1.025-0.273-1.555-0.273   c-0.532,0-1.06,0.088-1.558,0.273c-0.47,0.17-0.902,0.43-1.279,0.76c-0.368,0.324-0.666,0.725-0.876,1.168   c-0.197,0.412-0.298,0.869-0.298,1.326s0.102,0.914,0.298,1.326c0.21,0.449,0.508,0.846,0.876,1.168   c0.377,0.328,0.809,0.59,1.279,0.76c0.238,0.092,0.486,0.154,0.732,0.203c-0.148,0.617-0.336,1.221-0.561,1.816   c-0.407,1.059-1.203,1.928-2.228,2.43c-1.025,0.496-2.202,0.584-3.288,0.242c-1.31-0.412-2.56-1.002-3.715-1.744   c-0.228-0.141-0.533-0.07-0.672,0.164c-0.143,0.229-0.07,0.533,0.159,0.672c1.225,0.787,2.547,1.408,3.935,1.842   C44.223,67.801,45.658,67.699,46.908,67.09z"/></g><g><path d="M58.68,60.311c-0.314,0-0.57-0.258-0.57-0.57c0-0.316,0.256-0.57,0.57-0.57h5.934c0.314,0,0.57,0.254,0.57,0.57   c0,0.312-0.256,0.57-0.57,0.57H58.68z"/></g><g><path d="M58.768,62.666c-0.285-0.133-0.404-0.467-0.273-0.754c0.131-0.285,0.471-0.412,0.758-0.279l5.107,2.385   c0.285,0.133,0.408,0.471,0.275,0.756s-0.473,0.412-0.76,0.281L58.768,62.666z"/></g><g><path d="M58.768,56.811c-0.285,0.133-0.404,0.475-0.273,0.76c0.131,0.287,0.471,0.408,0.758,0.273l5.107-2.379   c0.285-0.135,0.408-0.477,0.275-0.762s-0.473-0.406-0.76-0.273L58.768,56.811z"/></g><g><path d="M41.504,60.311c0.314,0,0.571-0.258,0.571-0.57c0-0.316-0.257-0.57-0.571-0.57h-5.934c-0.314,0-0.568,0.254-0.568,0.57   c0,0.312,0.254,0.57,0.568,0.57H41.504z"/></g><g><path d="M41.415,62.666c0.286-0.133,0.409-0.467,0.277-0.754c-0.134-0.285-0.473-0.412-0.759-0.279l-5.108,2.385   c-0.285,0.133-0.409,0.471-0.275,0.756c0.132,0.285,0.472,0.412,0.758,0.281L41.415,62.666z"/></g><g><path d="M41.415,56.811c0.286,0.133,0.409,0.475,0.277,0.76c-0.134,0.287-0.473,0.408-0.759,0.273l-5.108-2.379   c-0.285-0.135-0.409-0.477-0.275-0.762c0.132-0.285,0.472-0.406,0.758-0.273L41.415,56.811z"/></g><text x="0" y="115" fill="#000000" font-size="5px" font-weight="bold" font-family="'Helvetica Neue', Helvetica, Arial-Unicode, Arial, Sans-serif">Created by Aldric Rodríguez</text><text x="0" y="120" fill="#000000" font-size="5px" font-weight="bold" font-family="'Helvetica Neue', Helvetica, Arial-Unicode, Arial, Sans-serif">from the Noun Project</text></svg>